<?xml version="1.0" encoding="UTF-8" standalone="no"?>
<!-- Created with Inkscape (http://www.inkscape.org/) -->

<svg
   width="35.668251mm"
   height="36.727707mm"
   viewBox="0 0 35.668251 36.727707"
   version="1.1"
   id="svg1"
   xml:space="preserve"
   inkscape:version="1.3.2 (091e20e, 2023-11-25, custom)"
   sodipodi:docname="Mail done.svg"
   xmlns:inkscape="http://www.inkscape.org/namespaces/inkscape"
   xmlns:sodipodi="http://sodipodi.sourceforge.net/DTD/sodipodi-0.dtd"
   xmlns="http://www.w3.org/2000/svg"
   xmlns:svg="http://www.w3.org/2000/svg"><sodipodi:namedview
     id="namedview1"
     pagecolor="#ffffff"
     bordercolor="#000000"
     borderopacity="0.25"
     inkscape:showpageshadow="2"
     inkscape:pageopacity="0.0"
     inkscape:pagecheckerboard="0"
     inkscape:deskcolor="#d1d1d1"
     inkscape:document-units="mm"
     inkscape:zoom="1.4984147"
     inkscape:cx="-36.371773"
     inkscape:cy="111.78481"
     inkscape:window-width="1349"
     inkscape:window-height="879"
     inkscape:window-x="21"
     inkscape:window-y="124"
     inkscape:window-maximized="0"
     inkscape:current-layer="layer1" /><defs
     id="defs1" /><g
     inkscape:label="Calque 1"
     inkscape:groupmode="layer"
     id="layer1"
     transform="translate(-87.228298,-130.13615)"><ellipse
       style="fill:#f0ab16;fill-opacity:1;fill-rule:evenodd;stroke-width:0.205454"
       id="path2"
       cx="105.06242"
       cy="148.5"
       rx="17.834126"
       ry="18.363853" /><path
       d="m 96.64341,140.5598 c -1.294691,0 -2.344253,1.08856 -2.344253,2.43507 0.02906,3.69249 8e-5,7.60065 0,11.36362 0,1.29595 0.970482,2.34481 2.197736,2.42242 l 17.435377,0.0123 c 1.25,-0.0524 2.24658,-1.12212 2.24658,-2.43506 v -11.78212 c -0.18967,-1.14801 -1.1492,-2.01655 -2.30761,-2.01655 -5.73949,0.003 -11.48604,3e-5 -17.227909,0 z m -0.03665,1.28093 h 17.33771 l -8.38812,8.71307 c -0.15305,0.159 -0.39638,0.159 -0.5494,0 l -8.400266,-8.71307 z m 18.40006,0.62143 v 11.80763 c 0,0.70349 -0.24401,1.10086 -0.73258,1.24289 l -5.90947,-6.15096 6.64205,-6.89937 z m -19.401055,0.0508 6.532255,6.78531 -5.970415,6.2017 c -0.40876,-0.14326 -0.551057,-0.48512 -0.561645,-0.95121 v -12.03573 z m 7.362525,7.63473 2.03904,2.13069 c 0.15306,0.15898 0.39637,0.15898 0.54941,0 l 1.97797,-2.0546 5.15267,5.35229 H 97.742768 l 5.225732,-5.42817 z"
       id="path1"
       style="fill:#f1f1da;fill-opacity:1;stroke-width:0.398204" /></g></svg>
