<?xml version="1.0" encoding="UTF-8" standalone="no"?>
<!-- Created with Inkscape (http://www.inkscape.org/) -->

<svg
   width="35.668251mm"
   height="36.727707mm"
   viewBox="0 0 35.668251 36.727707"
   version="1.1"
   id="svg1"
   xml:space="preserve"
   sodipodi:docname="Map Marker done.svg"
   inkscape:version="1.3.2 (091e20e, 2023-11-25, custom)"
   xmlns:inkscape="http://www.inkscape.org/namespaces/inkscape"
   xmlns:sodipodi="http://sodipodi.sourceforge.net/DTD/sodipodi-0.dtd"
   xmlns="http://www.w3.org/2000/svg"
   xmlns:svg="http://www.w3.org/2000/svg"><sodipodi:namedview
     id="namedview1"
     pagecolor="#ffffff"
     bordercolor="#000000"
     borderopacity="0.25"
     inkscape:showpageshadow="2"
     inkscape:pageopacity="0.0"
     inkscape:pagecheckerboard="0"
     inkscape:deskcolor="#d1d1d1"
     inkscape:document-units="mm"
     inkscape:zoom="0.74920735"
     inkscape:cx="-128.13542"
     inkscape:cy="182.85992"
     inkscape:window-width="1344"
     inkscape:window-height="894"
     inkscape:window-x="424"
     inkscape:window-y="183"
     inkscape:window-maximized="0"
     inkscape:current-layer="layer1" /><defs
     id="defs1" /><g
     inkscape:label="Calque 1"
     inkscape:groupmode="layer"
     id="layer1"
     transform="translate(-115.83354,-88.28775)"><ellipse
       style="fill:#f0ab16;fill-opacity:1;fill-rule:evenodd;stroke-width:0.205454"
       id="path2"
       cx="133.66766"
       cy="106.6516"
       rx="17.834126"
       ry="18.363853" /><path
       d="m 133.49108,94.128736 c -4.09628,0 -7.41733,3.32105 -7.41733,7.417334 0,4.09628 7.41733,19.04101 7.41733,19.04101 0,0 7.41733,-14.94446 7.41733,-19.04101 0,-4.096544 -3.32078,-7.417334 -7.41733,-7.417334 z m 0,10.709544 c -1.81795,0 -3.29194,-1.47425 -3.29194,-3.29194 0,-1.817694 1.47399,-3.291954 3.29194,-3.291954 1.81795,0 3.29195,1.47373 3.29195,3.291954 0,1.81822 -1.47373,3.29194 -3.29195,3.29194 z"
       id="path1"
       style="fill:#f1f1da;fill-opacity:1;stroke-width:0.264583" /></g></svg>
