<?xml version="1.0" encoding="UTF-8" standalone="no"?>
<!-- Created with Inkscape (http://www.inkscape.org/) -->

<svg
   width="35.668251mm"
   height="36.727707mm"
   viewBox="0 0 35.668251 36.727707"
   version="1.1"
   id="svg1"
   xml:space="preserve"
   sodipodi:docname="Phone done.svg"
   inkscape:version="1.3.2 (091e20e, 2023-11-25, custom)"
   xmlns:inkscape="http://www.inkscape.org/namespaces/inkscape"
   xmlns:sodipodi="http://sodipodi.sourceforge.net/DTD/sodipodi-0.dtd"
   xmlns="http://www.w3.org/2000/svg"
   xmlns:svg="http://www.w3.org/2000/svg"><sodipodi:namedview
     id="namedview1"
     pagecolor="#ffffff"
     bordercolor="#000000"
     borderopacity="0.25"
     inkscape:showpageshadow="2"
     inkscape:pageopacity="0.0"
     inkscape:pagecheckerboard="0"
     inkscape:deskcolor="#d1d1d1"
     inkscape:document-units="mm"
     inkscape:zoom="1.0595392"
     inkscape:cx="-28.786099"
     inkscape:cy="-32.561325"
     inkscape:window-width="1349"
     inkscape:window-height="879"
     inkscape:window-x="21"
     inkscape:window-y="124"
     inkscape:window-maximized="0"
     inkscape:current-layer="layer1" /><defs
     id="defs1" /><g
     inkscape:label="Calque 1"
     inkscape:groupmode="layer"
     id="layer1"
     transform="translate(-87.228298,-130.13615)"><ellipse
       style="fill:#f0ab16;fill-opacity:1;fill-rule:evenodd;stroke-width:0.205454"
       id="path2"
       cx="105.06242"
       cy="148.5"
       rx="17.834126"
       ry="18.363853" /><g
       id="g1"
       transform="matrix(0.25110153,0,0,0.22712602,95.828137,136.84984)"
       style="fill:#f1f1da;fill-opacity:1;stroke:none;stroke-opacity:1"><path
         d="m 21.547,0.091 c 0,0 -21.827,0.287 -21.544,20.059 0.283,19.772 4.253,37.255 10.773,46.998 6.52,9.743 23.242,35.248 42.236,32.67 0,0 9.355,-2.007 16.44,-6.593 L 46.492,75.171 c 0,0 -6.803,4.299 -11.055,-1.433 -4.252,-5.732 -17.575,-32.381 -17.575,-32.381 0,0 -3.685,-8.598 4.536,-12.323 z"
         id="path1"
         style="fill:#f1f1da;fill-opacity:1;stroke:none;stroke-opacity:1" /><path
         d="m 24.099,0.091 c 0,0 1.701,-0.571 4.818,1.147 3.117,1.718 3.118,3.15 3.118,3.15 l 0.284,19.775 c 0,0 -0.851,1.147 -1.984,2.291 -1.134,1.146 -4.819,2.867 -5.387,1.72 C 24.383,27.029 24.099,0.091 24.099,0.091 Z"
         id="path2-4"
         style="fill:#f1f1da;fill-opacity:1;stroke:none;stroke-opacity:1" /><path
         d="m 48.401,73.058 6.312,-3.332 c 0,0 1.417,-0.285 3.684,1.146 2.268,1.436 14.174,10.893 14.174,10.893 0,0 1.984,1.719 1.417,3.725 -0.567,2.006 -1.984,6.305 -1.984,6.305 z"
         id="path3"
         style="fill:#f1f1da;fill-opacity:1;stroke:none;stroke-opacity:1" /></g></g></svg>
